<svg width="191" height="191" viewBox="0 0 191 191" fill="none" xmlns="http://www.w3.org/2000/svg">
<path d="M59.6875 0H0V59.6875H59.6875V0ZM47.75 47.75H11.9375V11.9375H47.75V47.75Z" fill="black"/>
<path d="M35.8125 23.875H23.875V35.8125H35.8125V23.875Z" fill="black"/>
<path d="M131.312 0V59.6875H191V0H131.312ZM179.062 47.75H143.25V11.9375H179.062V47.75Z" fill="black"/>
<path d="M167.125 23.875H155.188V35.8125H167.125V23.875Z" fill="black"/>
<path d="M0 191H59.6875V131.312H0V191ZM11.9375 143.25H47.75V179.062H11.9375V143.25Z" fill="black"/>
<path d="M35.8125 155.188H23.875V167.125H35.8125V155.188Z" fill="black"/>
<path d="M119.375 0H95.5V11.9375H119.375V0Z" fill="black"/>
<path d="M95.5 47.75H107.438V35.8125H119.375V23.875H83.5625V11.9375H71.625V23.875V29.8438V35.8125H95.5V47.75Z" fill="black"/>
<path d="M83.5625 47.75H71.625V59.6875H83.5625V47.75Z" fill="black"/>
<path d="M119.375 59.6875H107.438V71.625H71.625V83.5625H119.375V59.6875Z" fill="black"/>
<path d="M11.9375 107.438H23.875V95.5H11.9375V71.625H0V119.375H11.9375V107.438Z" fill="black"/>
<path d="M35.8125 71.625H23.875V83.5625H35.8125V71.625Z" fill="black"/>
<path d="M71.625 119.375H95.5V107.438H83.5625V95.5H59.6875V71.625H47.75V95.5H35.8125V119.375H47.75V107.438H53.7188H59.6875H71.625V119.375Z" fill="black"/>
<path d="M119.375 95.5H107.438V119.375H119.375V95.5Z" fill="black"/>
<path d="M107.438 131.312H71.625V143.25H95.5V179.062H71.625V191H107.438V179.062H131.312V167.125H107.438V131.312Z" fill="black"/>
<path d="M83.5625 155.188H71.625V167.125H83.5625V155.188Z" fill="black"/>
<path d="M131.312 131.312H119.375V155.188H131.312V131.312Z" fill="black"/>
<path d="M179.062 155.188H143.25V191H155.188V167.125H179.062V155.188Z" fill="black"/>
<path d="M191 179.062H167.125V191H191V179.062Z" fill="black"/>
<path d="M191 131.312H179.062V143.25H191V131.312Z" fill="black"/>
<path d="M143.25 143.25H155.188V107.438H131.312V119.375H143.25V143.25Z" fill="black"/>
<path d="M167.125 83.5625H155.188V71.625H143.25V83.5625H131.312V95.5H179.062V83.5625H191V71.625H167.125V83.5625Z" fill="black"/>
<path d="M191 107.438H167.125V119.375H191V107.438Z" fill="black"/>
</svg>
