<svg width="20" height="20" viewBox="0 0 20 20" fill="none" xmlns="http://www.w3.org/2000/svg">
<path d="M10.0862 0.53363L10.0864 0.533815L19.3321 9.3962C19.4443 9.51006 19.5 9.65263 19.5 9.79032C19.5 10.0884 19.2563 10.332 18.9583 10.332H17.5H17V10.832V18.7486C17 19.1625 16.6639 19.4986 16.25 19.4986H12.7083C12.6394 19.4986 12.5833 19.4425 12.5833 19.3736V13.957C12.5833 13.5668 12.2655 13.2486 11.875 13.2486H8.125C7.73214 13.2486 7.41672 13.5683 7.41672 13.957V19.3736C7.41672 19.4425 7.36058 19.4986 7.29172 19.4986H3.75C3.33614 19.4986 3 19.1625 3 18.7486V10.832V10.332H2.5H1.04172C0.743672 10.332 0.5 10.0884 0.5 9.79032C0.5 9.64958 0.557818 9.50797 0.658824 9.40528L9.91357 0.533808L9.91375 0.53363C9.96184 0.487488 10.0382 0.487488 10.0862 0.53363Z" stroke="white"/>
</svg>
