<svg width="21" height="19" viewBox="0 0 21 19" fill="none" xmlns="http://www.w3.org/2000/svg">
<path d="M2.18745 4.58755C1.03608 4.58755 0.1 3.65148 0.1 2.49995C0.1 1.34858 1.03608 0.4125 2.18745 0.4125C3.33898 0.4125 4.27505 1.34858 4.27505 2.49995C4.27505 3.65147 3.33897 4.58755 2.18745 4.58755ZM2.18745 1.525C1.64932 1.525 1.2125 1.96182 1.2125 2.49995C1.2125 3.03822 1.64931 3.47505 2.18745 3.47505C2.72573 3.47505 3.16255 3.03823 3.16255 2.49995C3.16255 1.96181 2.72572 1.525 2.18745 1.525Z" fill="white" stroke="white" stroke-width="0.2"/>
<path d="M2.18745 11.5874C1.03608 11.5874 0.1 10.6513 0.1 9.49995C0.1 8.34858 1.03608 7.4125 2.18745 7.4125C3.33898 7.4125 4.27505 8.34858 4.27505 9.49995C4.27505 10.6513 3.33898 11.5874 2.18745 11.5874ZM2.18745 8.525C1.64934 8.525 1.2125 8.96165 1.2125 9.49995C1.2125 10.0382 1.64934 10.4749 2.18745 10.4749C2.72571 10.4749 3.16255 10.0383 3.16255 9.49995C3.16255 8.96164 2.72571 8.525 2.18745 8.525Z" fill="white" stroke="white" stroke-width="0.2"/>
<path d="M2.18745 18.5876C1.03608 18.5876 0.1 17.6515 0.1 16.5001C0.1 15.3486 1.03608 14.4125 2.18745 14.4125C3.33897 14.4125 4.27505 15.3486 4.27505 16.5001C4.27505 17.6515 3.33898 18.5876 2.18745 18.5876ZM2.18745 15.525C1.64931 15.525 1.2125 15.9618 1.2125 16.5001C1.2125 17.0382 1.64932 17.4751 2.18745 17.4751C2.72572 17.4751 3.16255 17.0382 3.16255 16.5001C3.16255 15.9618 2.72573 15.525 2.18745 15.525Z" fill="white" stroke="white" stroke-width="0.2"/>
<path d="M20.3438 3.05625H6.78125C6.47423 3.05625 6.225 2.80702 6.225 2.5C6.225 2.19298 6.47423 1.94375 6.78125 1.94375H20.3438C20.6508 1.94375 20.9001 2.19298 20.9001 2.5C20.9001 2.80702 20.6508 3.05625 20.3438 3.05625Z" fill="white" stroke="white" stroke-width="0.2"/>
<path d="M20.3438 10.0562H6.78125C6.47423 10.0562 6.225 9.80702 6.225 9.5C6.225 9.19298 6.47423 8.94375 6.78125 8.94375H20.3438C20.6508 8.94375 20.9001 9.19298 20.9001 9.5C20.9001 9.80702 20.6508 10.0562 20.3438 10.0562Z" fill="white" stroke="white" stroke-width="0.2"/>
<path d="M20.3438 17.0562H6.78125C6.47423 17.0562 6.225 16.807 6.225 16.5C6.225 16.193 6.47423 15.9438 6.78125 15.9438H20.3438C20.6508 15.9438 20.9001 16.193 20.9001 16.5C20.9001 16.807 20.6508 17.0562 20.3438 17.0562Z" fill="white" stroke="white" stroke-width="0.2"/>
</svg>
