<svg width="120" height="120" viewBox="0 0 120 120" fill="none" xmlns="http://www.w3.org/2000/svg">
<g clip-path="url(#clip0)">
<path d="M110.24 73.46L111.96 90L96.7598 96.7803L90 111.96L73.46 110.24L60 120L46.54 110.24L30 111.96L23.2197 96.7598L8.04004 90L9.75977 73.46L0 60L9.75977 46.54L8.04004 30L23.2402 23.2197L30 8.04004L46.54 9.75977L60 0L73.46 9.75977L90 8.04004L96.7803 23.2402L111.96 30L110.24 46.54L120 60L110.24 73.46Z" fill="#48C17A"/>
<path d="M87.5996 44.4004L81.9404 38.7402L48 72.6797L36.6797 61.3799L31.0195 67.0195L48 84L87.5996 44.4004Z" fill="white"/>
</g>
<defs>
<clipPath id="clip0">
<rect width="120" height="120" fill="white"/>
</clipPath>
</defs>
</svg>
