<svg width="24" height="18" viewBox="0 0 24 18" fill="none" xmlns="http://www.w3.org/2000/svg">
<path d="M0.750005 6.64999H0.749992C0.390668 6.65004 0.1 6.35938 0.1 6.00004V2.25001C0.1 1.06453 1.06453 0.1 2.25001 0.1H21.75C22.9355 0.1 23.9 1.06453 23.9 2.25001V6.00004C23.9 6.35938 23.6094 6.65004 23.25 6.65004C21.9541 6.65004 20.9 7.70411 20.9 9.00006C20.9 10.296 21.9541 11.3501 23.25 11.3501C23.6094 11.3501 23.9 11.6407 23.9 12.0001V15.7501C23.9 16.9355 22.9355 17.9001 21.75 17.9001H2.25001C1.06453 17.9001 0.1 16.9355 0.1 15.75V12C0.1 11.6407 0.390668 11.35 0.750005 11.35C2.04595 11.35 3.10002 10.296 3.10002 9.00001C3.10002 7.70406 2.04595 6.64999 0.750005 6.64999ZM1.48003 12.5766L1.40001 12.5929V12.6746V15.75C1.40001 16.2191 1.78098 16.6001 2.25001 16.6001H21.75C22.2191 16.6001 22.6 16.2191 22.6 15.75V12.6746V12.5929L22.52 12.5766C20.8561 12.2373 19.6 10.7628 19.6 9.00001C19.6 7.23726 20.856 5.76279 22.52 5.42341L22.6 5.40709V5.32542V2.25001C22.6 1.78098 22.2191 1.40001 21.75 1.40001H2.25001C1.78098 1.40001 1.40001 1.78098 1.40001 2.25001V5.32547V5.40714L1.48003 5.42346C3.14395 5.76279 4.40003 7.23731 4.40003 9.00006C4.40003 10.7628 3.14395 12.2373 1.48003 12.5766Z" fill="white" stroke="#4D5CF0" stroke-width="0.2"/>
<path d="M9.17684 14.6678L13.605 2.8593L14.8222 3.31576L10.3941 15.1243L9.17684 14.6678Z" fill="white" stroke="#4D5CF0" stroke-width="0.2"/>
<path d="M8.45192 9.15246C7.26643 9.15246 6.3019 8.18794 6.3019 7.00245C6.3019 5.81697 7.26643 4.85244 8.45192 4.85244C9.63741 4.85244 10.6019 5.81697 10.6019 7.00245C10.6019 8.18794 9.63741 9.15246 8.45192 9.15246ZM8.45192 6.15245C7.98288 6.15245 7.60191 6.53342 7.60191 7.00245C7.60191 7.47149 7.98288 7.85245 8.45192 7.85245C8.92096 7.85245 9.30192 7.47149 9.30192 7.00245C9.30192 6.53342 8.92096 6.15245 8.45192 6.15245Z" fill="white" stroke="#4D5CF0" stroke-width="0.2"/>
<path d="M16.2044 13.8041C15.0189 13.8041 14.0543 12.8396 14.0543 11.6541C14.0543 10.4686 15.0189 9.50405 16.2044 9.50405C17.3899 9.50405 18.3544 10.4686 18.3544 11.6541C18.3544 12.8396 17.3899 13.8041 16.2044 13.8041ZM16.2044 10.8041C15.7353 10.8041 15.3544 11.185 15.3544 11.6541C15.3544 12.1231 15.7353 12.5041 16.2044 12.5041C16.6734 12.5041 17.0544 12.1231 17.0544 11.6541C17.0544 11.185 16.6734 10.8041 16.2044 10.8041Z" fill="white" stroke="#4D5CF0" stroke-width="0.2"/>
</svg>
