<svg width="40" height="40" viewBox="0 0 40 40" fill="none" xmlns="http://www.w3.org/2000/svg">
<path d="M37.5277 12.3069C37.408 11.0741 36.8329 9.93035 35.9147 9.09917C34.9964 8.268 33.8012 7.8092 32.5627 7.81251C31.7339 7.81251 30.939 8.14175 30.353 8.7278C29.7669 9.31385 29.4377 10.1087 29.4377 10.9375C29.4377 11.7663 29.7669 12.5612 30.353 13.1472C30.939 13.7333 31.7339 14.0625 32.5627 14.0625H33.1252V16.7406C33.1231 17.7065 32.8099 18.6461 32.2321 19.42C31.6028 20.2589 31.2166 21.2549 31.1158 22.2988L30.9283 24.2506L28.9614 23.595C27.5952 23.1376 26.137 23.0255 24.7169 23.2687C23.2967 23.5119 21.9589 24.1028 20.8227 24.9888C20.2582 25.4246 19.5825 25.693 18.8728 25.7633C18.1631 25.8336 17.448 25.7029 16.8089 25.3863L14.4377 24.2025C12.6094 23.2912 10.5949 22.8155 8.55206 22.8125C8.46925 22.8125 8.38725 22.829 8.31085 22.8609C8.23444 22.8929 8.16515 22.9397 8.107 22.9986C8.04885 23.0576 8.00299 23.1276 7.9721 23.2044C7.94121 23.2812 7.9259 23.3634 7.92706 23.4463L8.12519 38.4463C8.12749 38.6105 8.19435 38.7672 8.31131 38.8826C8.42827 38.9979 8.58593 39.0625 8.75019 39.0625H11.2996C13.1896 39.063 15.0416 38.5317 16.6439 37.5294L18.5152 36.3606C18.9148 36.1106 19.3939 36.0202 19.8571 36.1075L21.8814 36.4906C24.3689 36.967 26.9437 36.6297 29.2246 35.5288L31.8939 34.25C32.1475 34.1281 32.4251 34.0641 32.7064 34.0625H36.2502C36.6869 34.0625 37.1188 33.971 37.518 33.7938C37.9172 33.6166 38.2748 33.3577 38.5678 33.0338C38.8608 32.7099 39.0826 32.3282 39.219 31.9133C39.3553 31.4984 39.4032 31.0596 39.3596 30.625L37.5277 12.3069ZM30.8127 28.9063C28.3378 29.8591 25.6561 30.1453 23.0358 29.7363C22.872 29.7105 22.7252 29.6207 22.6276 29.4867C22.5301 29.3526 22.4897 29.1853 22.5155 29.0216C22.5413 28.8578 22.6311 28.711 22.7651 28.6134C22.8991 28.5158 23.0664 28.4755 23.2302 28.5013C25.6335 28.877 28.0934 28.6145 30.3633 27.74C30.5173 27.6836 30.6873 27.6899 30.8366 27.7576C30.9859 27.8254 31.1026 27.9491 31.1616 28.1021C31.2206 28.2551 31.217 28.4252 31.1518 28.5756C31.0865 28.726 30.9647 28.8448 30.8127 28.9063Z" fill="#F2BB9D"/>
<path d="M14.2099 17.4732H12.0343V15.2976C12.0343 15.1534 11.977 15.015 11.875 14.913C11.773 14.811 11.6347 14.7537 11.4904 14.7537H8.22701C8.08276 14.7537 7.94442 14.811 7.84242 14.913C7.74042 15.015 7.68312 15.1534 7.68312 15.2976V17.4732H5.50752C5.36327 17.4732 5.22493 17.5305 5.12293 17.6325C5.02093 17.7345 4.96362 17.8729 4.96362 18.0171V21.2805C4.96362 21.4247 5.02093 21.5631 5.12293 21.6651C5.22493 21.7671 5.36327 21.8244 5.50752 21.8244H7.68312V24C7.68312 24.1442 7.74042 24.2826 7.84242 24.3846C7.94442 24.4866 8.08276 24.5439 8.22701 24.5439H11.4904C11.6347 24.5439 11.773 24.4866 11.875 24.3846C11.977 24.2826 12.0343 24.1442 12.0343 24V21.8244H14.2099C14.3541 21.8244 14.4925 21.7671 14.5945 21.6651C14.6965 21.5631 14.7538 21.4247 14.7538 21.2805V18.0171C14.7538 17.8729 14.6965 17.7345 14.5945 17.6325C14.4925 17.5305 14.3541 17.4732 14.2099 17.4732ZM13.666 20.7366H11.4904C11.3462 20.7366 11.2078 20.7939 11.1058 20.8959C11.0038 20.9979 10.9465 21.1362 10.9465 21.2805V23.4561H8.77091V21.2805C8.77091 21.1362 8.71361 20.9979 8.61161 20.8959C8.50961 20.7939 8.37127 20.7366 8.22701 20.7366H6.05142V18.561H8.22701C8.37127 18.561 8.50961 18.5037 8.61161 18.4017C8.71361 18.2997 8.77091 18.1614 8.77091 18.0171V15.8415H10.9465V18.0171C10.9465 18.1614 11.0038 18.2997 11.1058 18.4017C11.2078 18.5037 11.3462 18.561 11.4904 18.561H13.666V20.7366Z" fill="#151A6A"/>
<path d="M19.6487 3.87574C19.6487 3.73149 19.5914 3.59315 19.4894 3.49115C19.3874 3.38915 19.249 3.33184 19.1048 3.33184H6.05122C5.90697 3.33184 5.76863 3.38915 5.66663 3.49115C5.56463 3.59315 5.50732 3.73149 5.50732 3.87574C5.50732 4.01999 5.56463 4.15834 5.66663 4.26034C5.76863 4.36234 5.90697 4.41964 6.05122 4.41964H19.1048C19.249 4.41964 19.3874 4.36234 19.4894 4.26034C19.5914 4.15834 19.6487 4.01999 19.6487 3.87574Z" fill="#151A6A"/>
<path d="M19.1048 5.50744H11.3037C11.1594 5.50744 11.0211 5.56474 10.9191 5.66674C10.8171 5.76874 10.7598 5.90709 10.7598 6.05134C10.7598 6.19559 10.8171 6.33393 10.9191 6.43593C11.0211 6.53793 11.1594 6.59524 11.3037 6.59524H19.1048C19.249 6.59524 19.3874 6.53793 19.4894 6.43593C19.5914 6.33393 19.6487 6.19559 19.6487 6.05134C19.6487 5.90709 19.5914 5.76874 19.4894 5.66674C19.3874 5.56474 19.249 5.50744 19.1048 5.50744Z" fill="#151A6A"/>
<path d="M19.1049 7.68303H13.6115C13.4673 7.68303 13.3289 7.74034 13.2269 7.84234C13.1249 7.94434 13.0676 8.08268 13.0676 8.22693C13.0676 8.37118 13.1249 8.50953 13.2269 8.61153C13.3289 8.71353 13.4673 8.77083 13.6115 8.77083H19.1049C19.2492 8.77083 19.3875 8.71353 19.4895 8.61153C19.5915 8.50953 19.6488 8.37118 19.6488 8.22693C19.6488 8.08268 19.5915 7.94434 19.4895 7.84234C19.3875 7.74034 19.2492 7.68303 19.1049 7.68303Z" fill="#151A6A"/>
<path d="M19.105 9.85863H15.7329C15.5886 9.85863 15.4503 9.91593 15.3483 10.0179C15.2463 10.1199 15.189 10.2583 15.189 10.4025C15.189 10.5468 15.2463 10.6851 15.3483 10.7871C15.4503 10.8891 15.5886 10.9464 15.7329 10.9464H19.105C19.2493 10.9464 19.3876 10.8891 19.4896 10.7871C19.5916 10.6851 19.6489 10.5468 19.6489 10.4025C19.6489 10.2583 19.5916 10.1199 19.4896 10.0179C19.3876 9.91593 19.2493 9.85863 19.105 9.85863Z" fill="#151A6A"/>
<path d="M23.5219 20.5772L21.8244 18.8797V2.78795C21.8244 2.35519 21.6525 1.94016 21.3465 1.63416C21.0405 1.32816 20.6255 1.15625 20.1927 1.15625H4.96354C4.53079 1.15625 4.11576 1.32816 3.80976 1.63416C3.50375 1.94016 3.33184 2.35519 3.33184 2.78795V5.50744H2.78795C2.35519 5.50744 1.94016 5.67935 1.63416 5.98535C1.32816 6.29135 1.15625 6.70638 1.15625 7.13913V26.7195C1.15625 27.1522 1.32816 27.5673 1.63416 27.8733C1.94016 28.1793 2.35519 28.3512 2.78795 28.3512H22.3683C22.801 28.3512 23.2161 28.1793 23.5221 27.8733C23.8281 27.5673 24 27.1522 24 26.7195V21.7314C24.0007 21.5169 23.9588 21.3045 23.8767 21.1064C23.7946 20.9082 23.674 20.7284 23.5219 20.5772ZM4.41964 2.78795C4.41964 2.64369 4.47694 2.50535 4.57895 2.40335C4.68095 2.30135 4.81929 2.24405 4.96354 2.24405H20.1927C20.337 2.24405 20.4753 2.30135 20.5773 2.40335C20.6793 2.50535 20.7366 2.64369 20.7366 2.78795V17.7919L8.61147 5.6668C8.50949 5.56479 8.37117 5.50747 8.22693 5.50744H4.41964V2.78795ZM22.9122 26.7195C22.9122 26.8637 22.8549 27.0021 22.7529 27.1041C22.6509 27.2061 22.5125 27.2634 22.3683 27.2634H2.78795C2.64369 27.2634 2.50535 27.2061 2.40335 27.1041C2.30135 27.0021 2.24405 26.8637 2.24405 26.7195V7.13913C2.24405 6.99488 2.30135 6.85654 2.40335 6.75454C2.50535 6.65254 2.64369 6.59524 2.78795 6.59524H8.00176L22.7528 21.3463C22.8034 21.3969 22.8435 21.4569 22.8709 21.523C22.8982 21.5891 22.9122 21.6599 22.9122 21.7314V26.7195Z" fill="#151A6A"/>
</svg>
