<svg width="40" height="40" viewBox="0 0 40 40" fill="none" xmlns="http://www.w3.org/2000/svg">
<g clip-path="url(#clip0)">
<path d="M39.8168 17.3706L36.2499 13.8038V11.5625C36.2499 11.0652 36.0524 10.5883 35.7008 10.2367C35.3491 9.88504 34.8722 9.6875 34.3749 9.6875H22.3437C21.8464 9.6875 21.3695 9.88504 21.0179 10.2367C20.6662 10.5883 20.4687 11.0652 20.4687 11.5625V13.8038L16.9024 17.37C16.7939 17.4909 16.7299 17.6453 16.7212 17.8075V38.125C16.7212 38.6223 16.9187 39.0992 17.2704 39.4508C17.622 39.8025 18.0989 40 18.5962 40H38.1249C38.6222 40 39.0991 39.8025 39.4508 39.4508C39.8024 39.0992 39.9999 38.6223 39.9999 38.125V17.8125C39.9999 17.6468 39.934 17.4878 39.8168 17.3706ZM24.6093 32.3438C23.8676 32.3438 23.1426 32.1238 22.5259 31.7118C21.9092 31.2997 21.4286 30.714 21.1448 30.0288C20.8609 29.3436 20.7867 28.5896 20.9314 27.8622C21.0761 27.1347 21.4332 26.4665 21.9577 25.9421C22.4821 25.4177 23.1503 25.0605 23.8777 24.9158C24.6052 24.7711 25.3592 24.8454 26.0444 25.1292C26.7296 25.413 27.3153 25.8937 27.7273 26.5104C28.1394 27.127 28.3593 27.8521 28.3593 28.5938C28.3583 29.588 27.9629 30.5413 27.2599 31.2443C26.5568 31.9473 25.6036 32.3428 24.6093 32.3438ZM38.7499 38.125C38.7499 38.2908 38.6841 38.4497 38.5669 38.5669C38.4497 38.6842 38.2907 38.75 38.1249 38.75H32.4999V18.0712L35.6249 14.9462L38.7499 18.0712V38.125Z" fill="#F2BB9D"/>
<path d="M19.9125 4.96938C21.0051 3.78678 21.6105 2.23505 21.6075 0.625C21.6075 0.45924 21.5417 0.300269 21.4244 0.183058C21.3072 0.065848 21.1483 0 20.9825 0C19.7608 0.00200902 18.5648 0.35071 17.5334 1.00557C16.502 1.66043 15.6777 2.59456 15.1562 3.69938C14.6348 2.59456 13.8105 1.66043 12.7791 1.00557C11.7477 0.35071 10.5517 0.00200902 9.33 0C9.16424 0 9.00527 0.065848 8.88806 0.183058C8.77085 0.300269 8.705 0.45924 8.705 0.625C8.70199 2.23505 9.30742 3.78678 10.4 4.96938C4.60125 5.41688 0 10.9113 0 17.6194C0 24.6187 5.00625 30.3125 11.1588 30.3125C12.5359 30.3135 13.8982 30.0276 15.1587 29.4731C16.4193 30.0276 17.7816 30.3135 19.1587 30.3125C25.3062 30.3125 30.3125 24.6187 30.3125 17.6194C30.3125 10.9113 25.7113 5.41688 19.9125 4.96938ZM20.3156 1.2925C20.2187 2.04923 19.9551 2.77504 19.5438 3.41765C19.1326 4.06026 18.584 4.60367 17.9375 5.00875C17.2345 5.09653 16.543 5.25976 15.875 5.49563C16.0783 4.41666 16.617 3.42943 17.4144 2.67468C18.2118 1.91993 19.2271 1.43622 20.3156 1.2925ZM10 1.2925C11.0894 1.43524 12.1058 1.91852 12.9042 2.67334C13.7026 3.42817 14.2421 4.41594 14.4456 5.49563C13.7776 5.25976 13.0861 5.09653 12.3831 5.00875C11.7357 4.60421 11.1861 4.06103 10.774 3.41839C10.3619 2.77575 10.0975 2.04967 10 1.2925ZM19.1537 29.0625C17.863 29.0623 16.5885 28.7749 15.4225 28.2212C15.3391 28.1823 15.2483 28.1622 15.1562 28.1622C15.0642 28.1622 14.9734 28.1823 14.89 28.2212C13.724 28.7749 12.4495 29.0623 11.1588 29.0625C5.695 29.0625 1.25 23.9288 1.25 17.6194C1.25 11.31 5.695 6.17562 11.1588 6.17562C12.4533 6.17566 13.7317 6.46365 14.9012 7.01875C14.981 7.05642 15.0681 7.07596 15.1562 7.07596C15.2444 7.07596 15.3315 7.05642 15.4113 7.01875C16.5832 6.4707 17.86 6.18306 19.1537 6.17562C24.6175 6.17562 29.0625 11.3094 29.0625 17.6194C29.0625 23.9294 24.6175 29.0625 19.1537 29.0625Z" fill="#151A6A"/>
<path d="M19.1538 8.67563C18.988 8.67563 18.8291 8.74148 18.7119 8.85869C18.5947 8.9759 18.5288 9.13487 18.5288 9.30063C18.5288 9.46639 18.5947 9.62536 18.7119 9.74257C18.8291 9.85978 18.988 9.92563 19.1538 9.92563C22.5494 9.92563 25.3126 13.3769 25.3126 17.6194C25.3126 17.7851 25.3784 17.9441 25.4956 18.0613C25.6128 18.1785 25.7718 18.2444 25.9376 18.2444C26.1033 18.2444 26.2623 18.1785 26.3795 18.0613C26.4967 17.9441 26.5626 17.7851 26.5626 17.6194C26.5626 12.6875 23.2388 8.67563 19.1538 8.67563Z" fill="#151A6A"/>
<path d="M11.1588 25.3125C7.7625 25.3125 5 21.8619 5 17.6194C5 17.4536 4.93415 17.2946 4.81694 17.1774C4.69973 17.0602 4.54076 16.9944 4.375 16.9944C4.20924 16.9944 4.05027 17.0602 3.93306 17.1774C3.81585 17.2946 3.75 17.4536 3.75 17.6194C3.75 22.5506 7.07313 26.5625 11.1588 26.5625C11.3245 26.5625 11.4835 26.4967 11.6007 26.3794C11.7179 26.2622 11.7838 26.1033 11.7838 25.9375C11.7838 25.7717 11.7179 25.6128 11.6007 25.4956C11.4835 25.3783 11.3245 25.3125 11.1588 25.3125Z" fill="#151A6A"/>
</g>
<defs>
<clipPath id="clip0">
<rect width="40" height="40" fill="white"/>
</clipPath>
</defs>
</svg>
