<svg width="51" height="51" viewBox="0 0 51 51" fill="none" xmlns="http://www.w3.org/2000/svg">
<g clip-path="url(#clip0)">
<path d="M49.9083 18.1651L32.8107 1.06752C31.3882 -0.355022 29.1608 -0.353727 27.7395 1.06752L1.06768 27.7393C0.367816 28.4392 -0.0214631 29.4003 0.000252009 30.3752C0.0206722 31.3201 0.40756 32.1918 1.09059 32.8339L4.73216 36.4754C5.3629 37.1074 6.3607 37.1807 7.0774 36.6509C9.16853 35.1064 12.079 35.3077 13.848 37.1212C15.6604 38.9781 15.8809 41.8951 14.3604 43.9069C13.818 44.6248 13.8877 45.6316 14.5238 46.2677L18.1882 49.9321C18.87 50.6133 19.7987 51.0008 20.7478 51.0008C20.773 51.0008 20.7989 51.0002 20.8241 50.9996C21.769 50.9792 22.6407 50.5929 23.2828 49.9092L49.9311 23.2591C50.631 22.5598 51.0197 21.5993 50.9986 20.6238C50.9781 19.6789 50.592 18.8073 49.9083 18.1651ZM30.3118 3.59713C30.3034 3.60191 30.2896 3.60431 30.2781 3.6067L29.0143 2.34283L30.3118 3.59713ZM20.7244 47.3707L18.0746 44.7209C19.6911 41.444 19.0899 37.3321 16.4275 34.6037C13.7741 31.8872 9.64178 31.2721 6.2838 32.9301L3.62927 30.2761L30.2757 3.6302L47.3702 20.7247L20.7244 47.3707Z" fill="white"/>
<path d="M23.9264 7.20559L21.3622 9.73706L25.9871 14.4219L28.5513 11.8904L23.9264 7.20559Z" fill="white"/>
<path d="M39.1727 22.505L36.6406 25.0702L41.3268 29.6958L43.8588 27.1306L39.1727 22.505Z" fill="white"/>
<path d="M31.5481 14.8254L29 17.3735L33.6851 22.0586L36.2332 19.5105L31.5481 14.8254Z" fill="white"/>
</g>
<defs>
<clipPath id="clip0">
<rect width="51" height="51" fill="white"/>
</clipPath>
</defs>
</svg>
