<svg width="40" height="40" viewBox="0 0 40 40" fill="none" xmlns="http://www.w3.org/2000/svg">
<path d="M38.308 18.6744L28.8262 9.19187C28.4689 8.85095 27.9941 8.66074 27.5002 8.66074C27.0064 8.66074 26.5316 8.85095 26.1743 9.19187L9.1918 26.1744C8.84029 26.526 8.64282 27.0028 8.64282 27.5C8.64282 27.9972 8.84029 28.474 9.1918 28.8256L18.6737 38.3081C18.8478 38.4823 19.0545 38.6204 19.282 38.7147C19.5095 38.8089 19.7534 38.8574 19.9996 38.8574C20.2459 38.8574 20.4897 38.8089 20.7172 38.7147C20.9447 38.6204 21.1514 38.4823 21.3255 38.3081L38.308 21.3256C38.6596 20.974 38.857 20.4972 38.857 20C38.857 19.5028 38.6596 19.026 38.308 18.6744ZM26.2499 15C26.6208 15 26.9833 15.11 27.2916 15.316C27.6 15.522 27.8403 15.8149 27.9822 16.1575C28.1241 16.5001 28.1612 16.8771 28.0889 17.2408C28.0165 17.6045 27.838 17.9386 27.5757 18.2008C27.3135 18.463 26.9794 18.6416 26.6157 18.714C26.252 18.7863 25.875 18.7492 25.5324 18.6073C25.1898 18.4654 24.8969 18.225 24.6909 17.9167C24.4849 17.6083 24.3749 17.2458 24.3749 16.875C24.3749 16.3777 24.5725 15.9008 24.9241 15.5492C25.2757 15.1975 25.7526 15 26.2499 15ZM23.1249 18.125C23.4958 18.125 23.8583 18.235 24.1666 18.441C24.475 18.647 24.7153 18.9399 24.8572 19.2825C24.9991 19.6251 25.0362 20.0021 24.9639 20.3658C24.8915 20.7295 24.713 21.0636 24.4507 21.3258C24.1885 21.588 23.8544 21.7666 23.4907 21.839C23.127 21.9113 22.75 21.8742 22.4074 21.7323C22.0648 21.5904 21.7719 21.35 21.5659 21.0417C21.3599 20.7333 21.2499 20.3708 21.2499 20C21.2499 19.5027 21.4475 19.0258 21.7991 18.6742C22.1507 18.3225 22.6276 18.125 23.1249 18.125ZM19.9999 21.25C20.3708 21.25 20.7333 21.36 21.0416 21.566C21.35 21.772 21.5903 22.0649 21.7322 22.4075C21.8741 22.7501 21.9112 23.1271 21.8389 23.4908C21.7665 23.8545 21.588 24.1886 21.3257 24.4508C21.0635 24.713 20.7294 24.8916 20.3657 24.964C20.002 25.0363 19.625 24.9992 19.2824 24.8573C18.9398 24.7154 18.6469 24.475 18.4409 24.1667C18.2349 23.8583 18.1249 23.4958 18.1249 23.125C18.1249 22.6277 18.3225 22.1508 18.6741 21.7992C19.0257 21.4475 19.5026 21.25 19.9999 21.25ZM16.8749 28.125C16.5041 28.125 16.1416 28.015 15.8332 27.809C15.5249 27.603 15.2846 27.3101 15.1426 26.9675C15.0007 26.6249 14.9636 26.2479 15.0359 25.8842C15.1083 25.5205 15.2869 25.1864 15.5491 24.9242C15.8113 24.6619 16.1454 24.4834 16.5091 24.411C16.8728 24.3387 17.2498 24.3758 17.5925 24.5177C17.9351 24.6596 18.2279 24.9 18.4339 25.2083C18.64 25.5166 18.7499 25.8792 18.7499 26.25C18.7499 26.7473 18.5524 27.2242 18.2007 27.5758C17.8491 27.9275 17.3722 28.125 16.8749 28.125ZM21.2499 32.5C20.8791 32.5 20.5166 32.39 20.2082 32.184C19.8999 31.978 19.6596 31.6851 19.5176 31.3425C19.3757 30.9999 19.3386 30.6229 19.4109 30.2592C19.4833 29.8955 19.6619 29.5614 19.9241 29.2992C20.1863 29.0369 20.5204 28.8584 20.8841 28.786C21.2478 28.7137 21.6248 28.7508 21.9675 28.8927C22.3101 29.0346 22.6029 29.275 22.8089 29.5833C23.015 29.8916 23.1249 30.2542 23.1249 30.625C23.1249 31.1223 22.9274 31.5992 22.5757 31.9508C22.2241 32.3025 21.7472 32.5 21.2499 32.5ZM24.3749 29.375C24.0041 29.375 23.6416 29.265 23.3332 29.059C23.0249 28.853 22.7846 28.5601 22.6426 28.2175C22.5007 27.8749 22.4636 27.4979 22.5359 27.1342C22.6083 26.7705 22.7869 26.4364 23.0491 26.1742C23.3113 25.9119 23.6454 25.7334 24.0091 25.661C24.3728 25.5887 24.7498 25.6258 25.0925 25.7677C25.4351 25.9096 25.7279 26.15 25.9339 26.4583C26.14 26.7666 26.2499 27.1292 26.2499 27.5C26.2499 27.9973 26.0524 28.4742 25.7007 28.8258C25.3491 29.1775 24.8722 29.375 24.3749 29.375ZM27.4999 26.25C27.1291 26.25 26.7666 26.14 26.4582 25.934C26.1499 25.728 25.9096 25.4351 25.7676 25.0925C25.6257 24.7499 25.5886 24.3729 25.6609 24.0092C25.7333 23.6455 25.9119 23.3114 26.1741 23.0492C26.4363 22.7869 26.7704 22.6084 27.1341 22.536C27.4978 22.4637 27.8748 22.5008 28.2175 22.6427C28.5601 22.7846 28.8529 23.025 29.0589 23.3333C29.265 23.6416 29.3749 24.0042 29.3749 24.375C29.3749 24.8723 29.1774 25.3492 28.8257 25.7008C28.4741 26.0525 27.9972 26.25 27.4999 26.25ZM30.6249 23.125C30.2541 23.125 29.8916 23.015 29.5832 22.809C29.2749 22.603 29.0346 22.3101 28.8926 21.9675C28.7507 21.6249 28.7136 21.2479 28.7859 20.8842C28.8583 20.5205 29.0369 20.1864 29.2991 19.9242C29.5613 19.6619 29.8954 19.4834 30.2591 19.411C30.6228 19.3387 30.9998 19.3758 31.3425 19.5177C31.6851 19.6596 31.9779 19.9 32.1839 20.2083C32.39 20.5166 32.4999 20.8792 32.4999 21.25C32.4999 21.7473 32.3024 22.2242 31.9507 22.5758C31.5991 22.9275 31.1222 23.125 30.6249 23.125Z" fill="#F2BB9D"/>
<path d="M5.625 31.875H20.625C21.4535 31.874 22.2478 31.5444 22.8336 30.9586C23.4194 30.3728 23.749 29.5785 23.75 28.75V8.01C24.1143 7.8812 24.4299 7.64298 24.6537 7.32794C24.8774 7.01289 24.9984 6.63641 25 6.25V2.5C25 2.00272 24.8025 1.52581 24.4508 1.17417C24.0992 0.822544 23.6223 0.625 23.125 0.625H3.125C2.62772 0.625 2.15081 0.822544 1.79917 1.17417C1.44754 1.52581 1.25 2.00272 1.25 2.5V6.25C1.2516 6.63641 1.37255 7.01289 1.5963 7.32794C1.82006 7.64298 2.13568 7.8812 2.5 8.01V28.75C2.50099 29.5785 2.83055 30.3728 3.41639 30.9586C4.00222 31.5444 4.7965 31.874 5.625 31.875ZM20.625 30.625H5.625C5.12772 30.625 4.65081 30.4275 4.29917 30.0758C3.94754 29.7242 3.75 29.2473 3.75 28.75V8.125H22.5V10.625H9.375C8.87772 10.625 8.40081 10.8225 8.04917 11.1742C7.69754 11.5258 7.5 12.0027 7.5 12.5V25C7.5 25.4973 7.69754 25.9742 8.04917 26.3258C8.40081 26.6775 8.87772 26.875 9.375 26.875H22.5V28.75C22.5 29.2473 22.3025 29.7242 21.9508 30.0758C21.5992 30.4275 21.1223 30.625 20.625 30.625ZM13.75 6.875V1.875H18.125V6.875H13.75ZM12.5 6.875H8.125V1.875H12.5V6.875ZM22.5 25.625H9.375C9.20924 25.625 9.05027 25.5592 8.93306 25.4419C8.81585 25.3247 8.75 25.1658 8.75 25V12.5C8.75 12.3342 8.81585 12.1753 8.93306 12.0581C9.05027 11.9408 9.20924 11.875 9.375 11.875H22.5V25.625ZM23.75 2.5V6.25C23.75 6.41576 23.6842 6.57473 23.5669 6.69194C23.4497 6.80915 23.2908 6.875 23.125 6.875H19.375V1.875H23.125C23.2908 1.875 23.4497 1.94085 23.5669 2.05806C23.6842 2.17527 23.75 2.33424 23.75 2.5ZM2.5 2.5C2.5 2.33424 2.56585 2.17527 2.68306 2.05806C2.80027 1.94085 2.95924 1.875 3.125 1.875H6.875V6.875H3.125C2.95924 6.875 2.80027 6.80915 2.68306 6.69194C2.56585 6.57473 2.5 6.41576 2.5 6.25V2.5ZM13.125 18.125H15V16.25C15 16.0842 15.0658 15.9253 15.1831 15.8081C15.3003 15.6908 15.4592 15.625 15.625 15.625C15.7908 15.625 15.9497 15.6908 16.0669 15.8081C16.1842 15.9253 16.25 16.0842 16.25 16.25V18.125H18.125C18.2908 18.125 18.4497 18.1908 18.5669 18.3081C18.6842 18.4253 18.75 18.5842 18.75 18.75C18.75 18.9158 18.6842 19.0747 18.5669 19.1919C18.4497 19.3092 18.2908 19.375 18.125 19.375H16.25V21.25C16.25 21.4158 16.1842 21.5747 16.0669 21.6919C15.9497 21.8092 15.7908 21.875 15.625 21.875C15.4592 21.875 15.3003 21.8092 15.1831 21.6919C15.0658 21.5747 15 21.4158 15 21.25V19.375H13.125C12.9592 19.375 12.8003 19.3092 12.6831 19.1919C12.5658 19.0747 12.5 18.9158 12.5 18.75C12.5 18.5842 12.5658 18.4253 12.6831 18.3081C12.8003 18.1908 12.9592 18.125 13.125 18.125Z" fill="#151A6A"/>
</svg>
