<svg width="40" height="40" viewBox="0 0 40 40" fill="none" xmlns="http://www.w3.org/2000/svg">
<g clip-path="url(#clip0)">
<path d="M23.8438 26.4531H8V15.4844H23.8438V26.4531ZM23.8438 11.8281C23.8438 11.3433 23.6511 10.8783 23.3083 10.5354C22.9655 10.1926 22.5005 10 22.0156 10H9.82812C9.34328 10 8.87829 10.1926 8.53545 10.5354C8.19261 10.8783 8 11.3433 8 11.8281V14.2656H23.8438V11.8281ZM8 34.9844V27.6719H23.8438V34.9844C23.8428 35.7922 23.5215 36.5666 22.9503 37.1378C22.3791 37.709 21.6047 38.0303 20.7969 38.0312H11.0469C10.2391 38.0303 9.46467 37.709 8.89348 37.1378C8.32229 36.5666 8.00097 35.7922 8 34.9844ZM9.21875 34.9844C9.21875 35.4692 9.41136 35.9342 9.7542 36.2771C10.097 36.6199 10.562 36.8125 11.0469 36.8125H20.7969C21.2817 36.8125 21.7467 36.6199 22.0896 36.2771C22.4324 35.9342 22.625 35.4692 22.625 34.9844V31.9375H9.21875V34.9844ZM38.4688 13.0469V31.3281C38.4683 31.4896 38.4041 31.6444 38.2902 31.759L32.1965 37.8527C32.0822 37.9669 31.9272 38.0311 31.7656 38.0311C31.604 38.0311 31.4491 37.9669 31.3348 37.8527L25.241 31.759C25.1272 31.6444 25.063 31.4896 25.0625 31.3281V13.0469C25.0635 12.2391 25.3848 11.4647 25.956 10.8935C26.5272 10.3223 27.3016 10.001 28.1094 10H35.4219C36.2297 10.001 37.0041 10.3223 37.5753 10.8935C38.1465 11.4647 38.4678 12.2391 38.4688 13.0469ZM36.3883 31.9375H27.1429L29.5804 34.375H33.9508L36.3883 31.9375ZM32.375 30.1094V19.1406C32.375 18.979 32.3108 18.824 32.1965 18.7097C32.0822 18.5955 31.9272 18.5312 31.7656 18.5312C31.604 18.5312 31.449 18.5955 31.3347 18.7097C31.2205 18.824 31.1562 18.979 31.1562 19.1406V30.1094C31.1562 30.271 31.2205 30.426 31.3347 30.5403C31.449 30.6545 31.604 30.7188 31.7656 30.7188C31.9272 30.7188 32.0822 30.6545 32.1965 30.5403C32.3108 30.426 32.375 30.271 32.375 30.1094ZM37.25 16.0938H26.2812V17.3125H37.25V16.0938Z" fill="#F2BB9D"/>
<path d="M9.10125 14.4256C7.84817 14.424 6.6469 13.9254 5.76089 13.0393C4.87489 12.1532 4.37649 10.9518 4.375 9.69873C4.375 9.53297 4.30915 9.374 4.19194 9.25679C4.07473 9.13958 3.91576 9.07373 3.75 9.07373C3.58424 9.07373 3.42527 9.13958 3.30806 9.25679C3.19085 9.374 3.125 9.53297 3.125 9.69873C3.12682 11.2832 3.75702 12.8023 4.87737 13.9228C5.99773 15.0433 7.51675 15.6736 9.10125 15.6756C9.26701 15.6756 9.42598 15.6098 9.54319 15.4925C9.6604 15.3753 9.72625 15.2164 9.72625 15.0506C9.72625 14.8848 9.6604 14.7259 9.54319 14.6087C9.42598 14.4915 9.26701 14.4256 9.10125 14.4256Z" fill="#151A6A"/>
<path d="M16.3675 20.4931C15.0435 20.4944 13.7412 20.8289 12.5805 21.4659C11.4199 22.1029 10.4383 23.0219 9.72624 24.1381V18.7687C11.6679 18.6375 13.5162 17.8866 14.9992 16.6263C16.4822 15.3661 17.5215 13.6632 17.9643 11.7681C18.4071 9.87303 18.23 7.88587 17.459 6.099C16.6879 4.31212 15.3638 2.8199 13.6812 1.84187C13.6074 1.79862 13.5255 1.77099 13.4405 1.7607C13.3555 1.75042 13.2694 1.75768 13.1873 1.78206C13.1053 1.80644 13.0292 1.8474 12.9636 1.90241C12.898 1.95742 12.8445 2.02531 12.8062 2.10187L11.5237 4.66875L9.66062 0.942495C9.60283 0.845778 9.52094 0.765706 9.42295 0.710105C9.32496 0.654503 9.21422 0.625275 9.10156 0.625275C8.98889 0.625275 8.87815 0.654503 8.78016 0.710105C8.68217 0.765706 8.60028 0.845778 8.54249 0.942495L6.67999 4.66875L5.39624 2.10187C5.358 2.02531 5.30444 1.95742 5.23889 1.90241C5.17333 1.8474 5.09718 1.80644 5.01515 1.78206C4.93311 1.75768 4.84695 1.75042 4.76199 1.7607C4.67703 1.77099 4.59509 1.79862 4.52124 1.84187C2.83873 2.8199 1.51455 4.31212 0.743532 6.099C-0.0274885 7.88587 -0.204636 9.87303 0.238153 11.7681C0.680942 13.6632 1.72029 15.3661 3.20327 16.6263C4.68625 17.8866 6.53455 18.6375 8.47624 18.7687V24.1381C7.76445 23.022 6.78308 22.103 5.62264 21.466C4.4622 20.829 3.16004 20.4944 1.83624 20.4931C1.67048 20.4931 1.51151 20.559 1.3943 20.6762C1.27709 20.7934 1.21124 20.9524 1.21124 21.1181C1.21431 23.101 1.96326 25.0101 3.30925 26.4661C4.65525 27.922 6.49976 28.8184 8.47624 28.9769V30.8056C8.47624 30.9714 8.54209 31.1304 8.6593 31.2476C8.77651 31.3648 8.93548 31.4306 9.10124 31.4306C9.26701 31.4306 9.42598 31.3648 9.54319 31.2476C9.6604 31.1304 9.72624 30.9714 9.72624 30.8056V28.9769C11.7029 28.8185 13.5476 27.9223 14.8939 26.4663C16.2401 25.0103 16.9893 23.1011 16.9925 21.1181C16.9925 20.9524 16.9266 20.7934 16.8094 20.6762C16.6922 20.559 16.5333 20.4931 16.3675 20.4931ZM2.49312 21.775C4.01908 21.9289 5.44499 22.6054 6.52949 23.6899C7.61398 24.7744 8.29044 26.2003 8.44437 27.7262C6.91841 27.5723 5.4925 26.8959 4.408 25.8114C3.32351 24.7269 2.64705 23.301 2.49312 21.775ZM9.10124 17.5506C7.43282 17.5521 5.80738 17.0216 4.46104 16.0362C3.1147 15.0508 2.11758 13.6618 1.61452 12.071C1.11146 10.4802 1.12867 8.77051 1.66363 7.19018C2.1986 5.60985 3.22347 4.24123 4.58937 3.28312L6.12062 6.34562C6.17829 6.44249 6.26013 6.52271 6.35814 6.57843C6.45615 6.63414 6.56695 6.66344 6.67968 6.66344C6.79242 6.66344 6.90322 6.63414 7.00122 6.57843C7.09923 6.52271 7.18108 6.44249 7.23874 6.34562L9.10124 2.61937L10.9644 6.34562C11.022 6.44249 11.1039 6.52271 11.2019 6.57843C11.2999 6.63414 11.4107 6.66344 11.5234 6.66344C11.6362 6.66344 11.747 6.63414 11.845 6.57843C11.943 6.52271 12.0248 6.44249 12.0825 6.34562L13.6137 3.28312C14.9797 4.24126 16.0046 5.60994 16.5395 7.19033C17.0745 8.77072 17.0916 10.4805 16.5885 12.0713C16.0854 13.6621 15.0881 15.0511 13.7417 16.0364C12.3953 17.0218 10.7697 17.5522 9.10124 17.5506ZM9.75875 27.7262C9.91267 26.2003 10.5891 24.7744 11.6736 23.6899C12.7581 22.6054 14.184 21.9289 15.71 21.775C15.5561 23.301 14.8796 24.7269 13.7951 25.8114C12.7106 26.8959 11.2847 27.5723 9.75875 27.7262Z" fill="#151A6A"/>
</g>
<defs>
<clipPath id="clip0">
<rect width="40" height="40" fill="white"/>
</clipPath>
</defs>
</svg>
