<svg width="40" height="40" viewBox="0 0 40 40" fill="none" xmlns="http://www.w3.org/2000/svg">
<path d="M37.5 35V33.75C37.4956 30.4847 36.3311 27.3272 34.2142 24.841C32.0974 22.3549 29.166 20.7018 25.9431 20.1769C26.3415 19.6845 26.56 19.0709 26.5625 18.4375C26.5625 17.6916 26.2662 16.9762 25.7387 16.4488C25.2113 15.9213 24.4959 15.625 23.75 15.625C23.0041 15.625 22.2887 15.9213 21.7613 16.4488C21.2338 16.9762 20.9375 17.6916 20.9375 18.4375C20.94 19.0709 21.1585 19.6845 21.5569 20.1769C18.334 20.7018 15.4026 22.3549 13.2858 24.841C11.1689 27.3272 10.0044 30.4847 10 33.75V35C9.50272 35 9.02581 35.1975 8.67417 35.5492C8.32254 35.9008 8.125 36.3777 8.125 36.875C8.125 37.3723 8.32254 37.8492 8.67417 38.2008C9.02581 38.5525 9.50272 38.75 10 38.75H37.5C37.9973 38.75 38.4742 38.5525 38.8258 38.2008C39.1775 37.8492 39.375 37.3723 39.375 36.875C39.375 36.3777 39.1775 35.9008 38.8258 35.5492C38.4742 35.1975 37.9973 35 37.5 35ZM22.1875 18.4375C22.1875 18.1285 22.2791 17.8264 22.4508 17.5694C22.6225 17.3125 22.8665 17.1122 23.1521 16.9939C23.4376 16.8757 23.7517 16.8447 24.0548 16.905C24.3579 16.9653 24.6363 17.1141 24.8549 17.3326C25.0734 17.5512 25.2222 17.8296 25.2825 18.1327C25.3428 18.4358 25.3118 18.7499 25.1936 19.0354C25.0753 19.321 24.875 19.565 24.6181 19.7367C24.3611 19.9084 24.059 20 23.75 20C23.3356 20 22.9382 19.8354 22.6451 19.5424C22.3521 19.2493 22.1875 18.8519 22.1875 18.4375ZM37.5 37.5H10C9.83424 37.5 9.67527 37.4342 9.55806 37.3169C9.44085 37.1997 9.375 37.0408 9.375 36.875C9.375 36.7092 9.44085 36.5503 9.55806 36.4331C9.67527 36.3158 9.83424 36.25 10 36.25H37.5C37.6658 36.25 37.8247 36.3158 37.9419 36.4331C38.0592 36.5503 38.125 36.7092 38.125 36.875C38.125 37.0408 38.0592 37.1997 37.9419 37.3169C37.8247 37.4342 37.6658 37.5 37.5 37.5Z" fill="#F2BB9D"/>
<path d="M6.5625 1.25C3.16438 1.25 0.625 6.19938 0.625 10.625C0.625 14.08 2.1975 16.5225 4.86125 17.2694L4.4275 30.2925C4.41903 30.5782 4.468 30.8628 4.5715 31.1292C4.675 31.3957 4.83093 31.6387 5.03005 31.8438C5.22916 32.0489 5.46742 32.212 5.73071 32.3233C5.99399 32.4347 6.27695 32.492 6.56281 32.492C6.84868 32.492 7.13163 32.4347 7.39492 32.3233C7.6582 32.212 7.89646 32.0489 8.09558 31.8438C8.2947 31.6387 8.45063 31.3957 8.55413 31.1292C8.65763 30.8628 8.70659 30.5782 8.69812 30.2925L8.26062 17.2694C10.9275 16.5225 12.5 14.08 12.5 10.625C12.5 6.19938 9.96062 1.25 6.5625 1.25ZM7.50625 16.1637C7.35949 16.1913 7.22744 16.2705 7.134 16.3869C7.04057 16.5034 6.99192 16.6495 6.99687 16.7987L7.44812 30.3337C7.45256 30.4527 7.43268 30.5713 7.3897 30.6823C7.34671 30.7934 7.28152 30.8944 7.19812 30.9794C7.02866 31.1472 6.79978 31.2414 6.56125 31.2414C6.32272 31.2414 6.09384 31.1472 5.92438 30.9794C5.84098 30.8944 5.77579 30.7934 5.7328 30.6823C5.68982 30.5713 5.66994 30.4527 5.67438 30.3337L6.12562 16.7987C6.13058 16.6495 6.08193 16.5034 5.9885 16.3869C5.89506 16.2705 5.76301 16.1913 5.61625 16.1637C3.27437 15.7231 1.875 13.6525 1.875 10.625C1.875 6.52437 4.19687 2.5 6.5625 2.5C8.92813 2.5 11.25 6.52437 11.25 10.625C11.25 13.6525 9.85063 15.7231 7.50625 16.1637Z" fill="#151A6A"/>
<path d="M24.375 1.25C24.2093 1.25 24.0503 1.31585 23.9331 1.43306C23.8159 1.55027 23.75 1.70924 23.75 1.875V12.1875C23.7533 13.1059 23.4435 13.9981 22.8718 14.7169C22.3001 15.4357 21.5006 15.9383 20.605 16.1419C20.464 16.1745 20.3386 16.2551 20.2504 16.3699C20.1622 16.4847 20.1165 16.6265 20.1213 16.7712L20.5732 30.3337C20.5776 30.4527 20.5577 30.5713 20.5147 30.6823C20.4717 30.7934 20.4066 30.8944 20.3232 30.9794C20.1537 31.1472 19.9248 31.2414 19.6863 31.2414C19.4478 31.2414 19.2189 31.1472 19.0494 30.9794C18.966 30.8944 18.9008 30.7934 18.8578 30.6823C18.8148 30.5713 18.795 30.4527 18.7994 30.3337L19.2513 16.7712C19.256 16.6265 19.2104 16.4847 19.1222 16.3699C19.0339 16.2551 18.9086 16.1745 18.7675 16.1419C17.8724 15.9378 17.0735 15.435 16.5023 14.7162C15.9311 13.9975 15.6217 13.1056 15.625 12.1875V1.875C15.625 1.70924 15.5592 1.55027 15.442 1.43306C15.3248 1.31585 15.1658 1.25 15 1.25C14.8343 1.25 14.6753 1.31585 14.5581 1.43306C14.4409 1.55027 14.375 1.70924 14.375 1.875V12.1875C14.3709 13.2997 14.7179 14.3848 15.3667 15.2881C16.0155 16.1914 16.9329 16.8668 17.9882 17.2181L17.5507 30.2925C17.5422 30.5782 17.5912 30.8628 17.6947 31.1292C17.7982 31.3957 17.9541 31.6387 18.1532 31.8438C18.3523 32.0489 18.5906 32.212 18.8539 32.3233C19.1171 32.4347 19.4001 32.492 19.686 32.492C19.9718 32.492 20.2548 32.4347 20.5181 32.3233C20.7814 32.212 21.0196 32.0489 21.2187 31.8438C21.4179 31.6387 21.5738 31.3957 21.6773 31.1292C21.7808 30.8628 21.8297 30.5782 21.8213 30.2925L21.3838 17.2181C22.4396 16.8674 23.3577 16.1922 24.0071 15.2888C24.6565 14.3854 25.004 13.3 25 12.1875V1.875C25 1.70924 24.9342 1.55027 24.817 1.43306C24.6998 1.31585 24.5408 1.25 24.375 1.25Z" fill="#151A6A"/>
<path d="M18.125 10.3125C18.2908 10.3125 18.4497 10.2467 18.5669 10.1294C18.6842 10.0122 18.75 9.85326 18.75 9.6875V1.875C18.75 1.70924 18.6842 1.55027 18.5669 1.43306C18.4497 1.31585 18.2908 1.25 18.125 1.25C17.9592 1.25 17.8003 1.31585 17.6831 1.43306C17.5658 1.55027 17.5 1.70924 17.5 1.875V9.6875C17.5 9.85326 17.5658 10.0122 17.6831 10.1294C17.8003 10.2467 17.9592 10.3125 18.125 10.3125Z" fill="#151A6A"/>
<path d="M21.25 10.3125C21.4158 10.3125 21.5747 10.2467 21.6919 10.1294C21.8092 10.0122 21.875 9.85326 21.875 9.6875V1.875C21.875 1.70924 21.8092 1.55027 21.6919 1.43306C21.5747 1.31585 21.4158 1.25 21.25 1.25C21.0842 1.25 20.9253 1.31585 20.8081 1.43306C20.6908 1.55027 20.625 1.70924 20.625 1.875V9.6875C20.625 9.85326 20.6908 10.0122 20.8081 10.1294C20.9253 10.2467 21.0842 10.3125 21.25 10.3125Z" fill="#151A6A"/>
</svg>
