<svg width="12" height="12" viewBox="0 0 12 12" fill="none" xmlns="http://www.w3.org/2000/svg">
<path d="M5.60103 11.238V11.1984L5.59221 11.1599L4.69853 7.25528L4.64997 7.04308L4.43816 6.99282L0.603315 6.0829L0.563466 6.07344H0.522511C0.469576 6.07344 0.437325 6.05687 0.414837 6.03709C0.389099 6.01445 0.366398 5.97815 0.355855 5.9319C0.33417 5.83676 0.369758 5.76145 0.442468 5.72459L0.442988 5.72432L10.9526 0.373961L10.959 0.370701L10.9652 0.367181C11.0146 0.339445 11.0852 0.342265 11.1506 0.406113C11.2109 0.46488 11.2284 0.540252 11.1875 0.619821L11.1875 0.619794L11.1846 0.625608L5.92983 11.3263C5.9055 11.3759 5.87546 11.3982 5.84875 11.4095C5.81852 11.4224 5.77937 11.4264 5.73807 11.4164C5.69683 11.4064 5.66243 11.3847 5.63964 11.3576C5.61917 11.3333 5.60103 11.2967 5.60103 11.238Z" stroke="#535353" stroke-width="0.7"/>
</svg>
