<svg width="40" height="40" viewBox="0 0 40 40" fill="none" xmlns="http://www.w3.org/2000/svg">
<g clip-path="url(#clip0)">
<path d="M33.1676 22.7551C31.4293 21.0169 29.266 19.9371 27.5215 19.9371C27.008 19.892 26.4974 20.0514 26.1007 20.3806C25.469 21.0126 25.6789 22.3596 25.7583 22.7576C26.1987 24.5474 27.141 26.1743 28.4746 27.4469C30.2132 29.1852 32.3766 30.2652 34.1206 30.2652C34.6344 30.3103 35.1451 30.1508 35.5419 29.8214C36.1742 29.189 35.9636 27.8429 35.884 27.4453C35.4435 25.6552 34.5011 24.028 33.1676 22.7551Z" fill="#F2BB9D"/>
<path d="M38.7479 33.0725H37.9075C38.0727 32.9441 38.2301 32.8059 38.3787 32.6587C39.798 31.2399 40.3092 29.1083 39.8185 26.6571C39.2287 24.0878 37.9035 21.7459 36.0047 19.9173C34.1761 18.0185 31.8342 16.6933 29.2649 16.1035C26.8131 15.6112 24.6821 16.1242 23.2633 17.5433C21.8446 18.9624 21.3328 21.0937 21.8235 23.5449C22.4133 26.1142 23.7385 28.4562 25.6373 30.2848C26.7579 31.4127 28.052 32.3538 29.4704 33.0723H19.1599C18.8285 33.0726 18.5107 33.2044 18.2764 33.4387C18.042 33.6731 17.9102 33.9908 17.9099 34.3223V38.75C17.9102 39.0814 18.042 39.3992 18.2764 39.6335C18.5107 39.8679 18.8285 39.9997 19.1599 40H38.7479C39.0793 39.9997 39.3971 39.8679 39.6314 39.6335C39.8658 39.3992 39.9976 39.0814 39.9979 38.75V34.3225C39.9976 33.9911 39.8658 33.6733 39.6314 33.439C39.3971 33.2046 39.0793 33.0728 38.7479 33.0725ZM36.4255 30.7049C36.1153 30.9876 35.7513 31.205 35.3553 31.3442C34.9594 31.4834 34.5394 31.5415 34.1205 31.5152C32.057 31.5152 29.5548 30.2951 27.5907 28.3307C26.0835 26.8831 25.0223 25.0342 24.5325 23.0026C24.3912 22.2952 24.1752 20.5383 25.217 19.4964C25.5274 19.2141 25.8913 18.997 26.2871 18.8579C26.683 18.7189 27.1027 18.6608 27.5214 18.6871C29.585 18.6871 32.0872 19.9072 34.0513 21.8712C35.5583 23.3193 36.6195 25.1683 37.1095 27.2C37.251 27.9063 37.4677 29.6625 36.4255 30.7049Z" fill="#F2BB9D"/>
<path d="M15.0803 36.3654C14.6138 36.3648 14.1665 36.1792 13.8366 35.8492C13.5068 35.5193 13.3212 35.072 13.3207 34.6054C13.3207 34.4397 13.2549 34.2807 13.1377 34.1635C13.0205 34.0463 12.8615 33.9804 12.6957 33.9804C12.53 33.9804 12.371 34.0463 12.2538 34.1635C12.1366 34.2807 12.0707 34.4397 12.0707 34.6054C12.0702 35.072 11.8847 35.5193 11.5548 35.8492C11.2249 36.1792 10.7776 36.3648 10.311 36.3654C10.1453 36.3654 9.9863 36.4312 9.86909 36.5484C9.75188 36.6656 9.68604 36.8246 9.68604 36.9904C9.68604 37.1561 9.75188 37.3151 9.86909 37.4323C9.9863 37.5495 10.1453 37.6154 10.311 37.6154C10.7775 37.6159 11.2248 37.8015 11.5547 38.1314C11.8846 38.4612 12.0701 38.9085 12.0707 39.375C12.0707 39.5408 12.1366 39.6997 12.2538 39.8169C12.371 39.9342 12.53 40 12.6957 40C12.8615 40 13.0205 39.9342 13.1377 39.8169C13.2549 39.6997 13.3207 39.5408 13.3207 39.375C13.3213 38.9085 13.5069 38.4613 13.8367 38.1314C14.1666 37.8015 14.6138 37.6159 15.0803 37.6154C15.2461 37.6154 15.4051 37.5495 15.5223 37.4323C15.6395 37.3151 15.7053 37.1561 15.7053 36.9904C15.7053 36.8246 15.6395 36.6656 15.5223 36.5484C15.4051 36.4312 15.2461 36.3654 15.0803 36.3654ZM12.6957 37.5409C12.5366 37.3345 12.3516 37.1495 12.1452 36.9904C12.3516 36.8313 12.5366 36.6462 12.6957 36.4398C12.8548 36.6462 13.0398 36.8313 13.2462 36.9904C13.0398 37.1495 12.8548 37.3345 12.6957 37.5409Z" fill="#F2BB9D"/>
<path d="M34.5664 13.3963C35.033 13.3969 35.4803 13.5825 35.8101 13.9124C36.14 14.2424 36.3256 14.6897 36.326 15.1563C36.326 15.322 36.3919 15.481 36.5091 15.5982C36.6263 15.7154 36.7853 15.7813 36.951 15.7813C37.1168 15.7813 37.2758 15.7154 37.393 15.5982C37.5102 15.481 37.576 15.322 37.576 15.1563C37.5766 14.6897 37.7622 14.2425 38.0921 13.9126C38.422 13.5828 38.8692 13.3972 39.3357 13.3966C39.5015 13.3966 39.6605 13.3308 39.7777 13.2136C39.8949 13.0964 39.9607 12.9374 39.9607 12.7716C39.9607 12.6059 39.8949 12.4469 39.7777 12.3297C39.6605 12.2125 39.5015 12.1466 39.3357 12.1466C38.8692 12.1461 38.422 11.9605 38.0921 11.6306C37.7622 11.3008 37.5766 10.8535 37.576 10.387C37.576 10.2212 37.5102 10.0623 37.393 9.94506C37.2758 9.82785 37.1168 9.762 36.951 9.762C36.7853 9.762 36.6263 9.82785 36.5091 9.94506C36.3919 10.0623 36.326 10.2212 36.326 10.387C36.3255 10.8535 36.1399 11.3008 35.81 11.6306C35.4802 11.9605 35.0329 12.1461 34.5664 12.1466C34.4006 12.1466 34.2417 12.2125 34.1245 12.3297C34.0073 12.4469 33.9414 12.6059 33.9414 12.7716C33.9414 12.9374 34.0073 13.0964 34.1245 13.2136C34.2417 13.3308 34.4006 13.3966 34.5664 13.3966V13.3963ZM36.951 12.2208C37.1101 12.4272 37.2952 12.6122 37.5016 12.7713C37.2952 12.9304 37.1102 13.1154 36.951 13.3218C36.7919 13.1154 36.6069 12.9304 36.4005 12.7713C36.6069 12.6122 36.792 12.4272 36.951 12.2208Z" fill="#F2BB9D"/>
<path d="M13.2929 20.1974C13.3088 20.1974 13.325 20.1968 13.3411 20.1956L14.8863 20.0778C14.9705 20.0714 15.0526 20.0479 15.1275 20.0089C15.2024 19.9699 15.2686 19.9161 15.3222 19.8507C15.3757 19.7854 15.4154 19.7099 15.439 19.6287C15.4625 19.5476 15.4693 19.4625 15.4591 19.3787L14.9568 15.2804C14.9468 15.199 14.9209 15.1202 14.8805 15.0488C14.8401 14.9773 14.786 14.9145 14.7213 14.864C14.6566 14.8134 14.5826 14.7761 14.5036 14.7541C14.4245 14.7322 14.3418 14.726 14.2603 14.736C14.1789 14.746 14.1001 14.7719 14.0287 14.8123C13.9572 14.8527 13.8944 14.9068 13.8439 14.9715C13.7418 15.1021 13.6957 15.2679 13.7159 15.4324L14.1386 18.8812L13.2459 18.9492C13.0848 18.9615 12.9347 19.0358 12.8271 19.1563C12.7195 19.2769 12.6628 19.4345 12.6689 19.5959C12.675 19.7574 12.7434 19.9103 12.8597 20.0224C12.9761 20.1346 13.1313 20.1973 13.2929 20.1974Z" fill="#151A6A"/>
<path d="M27.4599 17.1973L25.0479 5.1355C24.8294 4.04355 24.3294 3.02766 23.5972 2.18856C22.8651 1.34946 21.9264 0.716298 20.8742 0.351844C19.8219 -0.01261 18.6927 -0.0956915 17.5984 0.110837C16.5042 0.317365 15.4829 0.80633 14.6359 1.52925L13.8543 2.19662L13.5653 1.90794C12.7318 1.0744 11.6877 0.482699 10.5444 0.19594C9.40104 -0.0908194 8.20131 -0.0618866 7.07311 0.279653C5.94492 0.621192 4.93058 1.26253 4.13825 2.13528C3.34592 3.00803 2.80532 4.07946 2.5741 5.23531L0.181414 17.1969C-0.258712 19.4268 0.123751 21.7405 1.25803 23.7101C2.39231 25.6797 4.20162 27.1717 6.35116 27.9101L8.0881 28.5017V29.6878C8.0881 29.8536 8.15395 30.0126 8.27116 30.1298C8.38837 30.247 8.54734 30.3128 8.7131 30.3128H18.9284C19.0942 30.3128 19.2531 30.247 19.3704 30.1298C19.4876 30.0126 19.5534 29.8536 19.5534 29.6878V28.5018L21.2903 27.9101C23.4399 27.172 25.2494 25.68 26.3837 23.7104C27.518 21.7409 27.9003 19.427 27.4599 17.1973ZM18.3037 29.0628H9.33798L9.33841 25.8378C10.2434 26.5295 11.241 27.0905 12.3022 27.5044L12.8411 27.7131C13.5162 27.975 14.2647 27.975 14.9398 27.7131L15.48 27.5041C16.4866 27.1112 17.4363 26.5857 18.3039 25.9416L18.3037 29.0628ZM15.0289 26.3385L14.4887 26.5476C14.104 26.697 13.6772 26.6969 13.2925 26.5473L12.7532 26.3385C10.6745 25.5234 8.88844 24.1029 7.62644 22.2609C6.36444 20.419 5.68466 18.2405 5.67516 16.0077L5.67448 14.7458C6.99816 14.5311 8.24697 13.9882 9.30682 13.1667C10.3667 12.3451 11.2038 11.2711 11.7417 10.0428C11.8318 9.837 11.9727 9.65754 12.1512 9.52128C12.3298 9.38501 12.5401 9.29643 12.7623 9.26386C12.9845 9.23129 13.2114 9.2558 13.4215 9.3351C13.6316 9.4144 13.8181 9.54587 13.9634 9.71713L14.362 10.1871C14.4225 10.2585 14.4984 10.3154 14.5839 10.3535C14.6694 10.3917 14.7624 10.4101 14.856 10.4075C14.9496 10.4049 15.0414 10.3813 15.1247 10.3385C15.2079 10.2956 15.2805 10.2346 15.337 10.1599L15.487 9.96157C15.6656 9.7258 15.8997 9.53779 16.1684 9.4142C16.4372 9.29062 16.7323 9.2353 17.0276 9.25314C17.3228 9.27099 17.6091 9.36145 17.861 9.51649C18.1129 9.67154 18.3227 9.88638 18.4716 10.1419C18.8512 10.788 19.3787 11.3347 20.0108 11.737C20.6429 12.1394 21.3615 12.3859 22.1075 12.4563V16.0079C22.098 18.2407 21.4181 20.4192 20.156 22.2612C18.8939 24.1031 17.1077 25.5236 15.0289 26.3385ZM20.8877 26.7267L19.5537 27.1811L19.554 24.8878C20.7504 23.7378 21.7035 22.3592 22.3568 20.8338C23.0102 19.3085 23.3505 17.6674 23.3575 16.008V12.4859H23.5082C23.674 12.4859 23.833 12.4201 23.9502 12.3029C24.0674 12.1857 24.1332 12.0267 24.1332 11.8609C24.1332 11.6952 24.0674 11.5362 23.9502 11.419C23.833 11.3018 23.674 11.2359 23.5082 11.2359H22.5512C21.9444 11.2348 21.3485 11.0752 20.8225 10.7729C20.2964 10.4706 19.8584 10.0361 19.5519 9.5125C19.3216 9.11709 19.0051 8.77867 18.626 8.52236C18.2469 8.26606 17.8149 8.09846 17.3622 8.03202C16.9094 7.96559 16.4475 8.00202 16.0108 8.13861C15.574 8.2752 15.1736 8.50844 14.8394 8.821C14.5488 8.50839 14.185 8.27298 13.7807 8.13596C13.3765 7.99895 12.9445 7.96462 12.5237 8.03609C12.1028 8.10756 11.7064 8.28256 11.3701 8.54536C11.0337 8.80815 10.768 9.15047 10.5969 9.5415C10.0688 10.7487 9.20027 11.7757 8.09761 12.4969C6.99495 13.2182 5.70595 13.6024 4.38835 13.6025H4.13385H4.13323C4.05115 13.6025 3.96987 13.6186 3.89403 13.65C3.81818 13.6813 3.74926 13.7273 3.69119 13.7853C3.63313 13.8433 3.58706 13.9122 3.55561 13.988C3.52416 14.0639 3.50796 14.1451 3.50791 14.2272C3.50787 14.3093 3.524 14.3905 3.55537 14.4664C3.58674 14.5422 3.63274 14.6112 3.69075 14.6692C3.8079 14.7865 3.96684 14.8524 4.1326 14.8525H4.38773C4.40023 14.8525 4.41229 14.8511 4.42466 14.8511L4.42529 16.0082C4.43234 17.6355 4.76006 19.2455 5.38969 20.7461C6.01933 22.2467 6.93855 23.6084 8.09479 24.7536C8.09423 24.7643 8.08854 24.7733 8.08854 24.7841V27.1809L6.75429 26.7266C4.89142 26.0866 3.32341 24.7936 2.3404 23.0867C1.35739 21.3798 1.02593 19.3746 1.40735 17.4422L3.79966 5.48063C3.98646 4.54657 4.42328 3.68073 5.06353 2.97545C5.70379 2.27016 6.52347 1.75188 7.43515 1.47587C8.34684 1.19987 9.31634 1.17649 10.2403 1.40823C11.1642 1.63997 12.0079 2.11814 12.6814 2.79175L13.3787 3.48906C13.4901 3.59999 13.639 3.66502 13.7961 3.67123C13.9531 3.67745 14.1068 3.62441 14.2265 3.52262L15.4475 2.48019C16.1288 1.89865 16.9503 1.5053 17.8304 1.33915C18.7106 1.17299 19.6189 1.23981 20.4653 1.53297C21.3117 1.82612 22.0668 2.33544 22.6556 3.01041C23.2444 3.68537 23.6466 4.50254 23.8222 5.38088L26.2344 17.4426C26.6158 19.375 26.2844 21.3801 25.3015 23.087C24.3185 24.7938 22.7505 26.0868 20.8877 26.7267Z" fill="#151A6A"/>
<path d="M16.8934 22.061C16.8708 22.027 16.8451 21.9952 16.8166 21.9661C16.794 21.9314 16.7679 21.8991 16.7387 21.8698L16.7367 21.8688L16.7354 21.8671L16.2513 21.4716C15.9258 21.2057 15.5444 21.017 15.1356 20.9195C14.7268 20.8221 14.3012 20.8185 13.8908 20.9091C13.4804 20.8189 13.055 20.8227 12.6463 20.9201C12.2376 21.0175 11.8562 21.206 11.5306 21.4716L11.0462 21.8668L11.0444 21.869L11.0429 21.8698C11.0208 21.893 11.0007 21.9179 10.9827 21.9443C10.9466 21.9794 10.9149 22.0186 10.8881 22.0612C10.8748 22.0942 10.8645 22.1284 10.8572 22.1633C10.8184 22.2358 10.8086 22.3204 10.8299 22.3999C10.8294 22.4432 10.8336 22.4864 10.8424 22.5288C10.8561 22.5612 10.8726 22.5925 10.8916 22.6222C10.9084 22.666 10.9304 22.7076 10.9569 22.7463L10.9592 22.7481L10.96 22.7496C11.3296 23.1563 11.783 23.478 12.2889 23.6925C12.7949 23.907 13.3413 24.0092 13.8906 23.992C14.4399 24.0092 14.9863 23.907 15.4923 23.6925C15.9982 23.478 16.4516 23.1563 16.8212 22.7496L16.8223 22.7476L16.8239 22.7463C16.8461 22.7129 16.8649 22.6775 16.8799 22.6404C16.9032 22.6052 16.9229 22.5678 16.9389 22.5287C16.9467 22.4896 16.9506 22.4498 16.9506 22.4099C16.9731 22.3322 16.9651 22.2489 16.9282 22.1769C16.9204 22.1372 16.9088 22.0984 16.8934 22.061ZM13.8908 22.7423C13.3821 22.7474 12.8812 22.6176 12.4391 22.3659C12.6237 22.2391 12.8339 22.1545 13.0548 22.118C13.2757 22.0815 13.5019 22.0939 13.7174 22.1545C13.8307 22.1868 13.9508 22.1868 14.0641 22.1545C14.2797 22.0939 14.506 22.0814 14.727 22.1178C14.9479 22.1543 15.1582 22.2389 15.3428 22.3657C14.9007 22.6174 14.3996 22.7473 13.8908 22.742V22.7423Z" fill="#151A6A"/>
</g>
<defs>
<clipPath id="clip0">
<rect width="40" height="40" fill="white"/>
</clipPath>
</defs>
</svg>
