<svg width="22" height="22" viewBox="0 0 22 22" fill="none" xmlns="http://www.w3.org/2000/svg">
<path d="M11.6875 12.5606H10.3125V22H11.6875V12.5606Z" fill="black"/>
<path d="M10.9999 13.3182C7.36882 13.3182 4.42529 10.3369 4.42529 6.65912C4.42529 2.98134 7.36882 0 10.9999 0V13.3182Z" fill="#F91E1E"/>
<path d="M11 0C14.631 0 17.5746 2.98134 17.5746 6.65912C17.5746 10.3369 14.631 13.3182 11 13.3182V0Z" fill="#EA0707"/>
<path d="M11 9.06191C12.3103 9.06191 13.3726 7.98614 13.3726 6.6591C13.3726 5.33206 12.3103 4.25629 11 4.25629C9.68967 4.25629 8.62744 5.33206 8.62744 6.6591C8.62744 7.98614 9.68967 9.06191 11 9.06191Z" fill="white"/>
</svg>
