<svg width="20" height="20" viewBox="0 0 20 20" fill="none" xmlns="http://www.w3.org/2000/svg">
<path d="M9.15478 19.9C7.48758 19.9 6.12979 18.5431 6.12979 16.875C6.12979 16.5852 6.36501 16.35 6.65478 16.35C6.94456 16.35 7.17978 16.5852 7.17978 16.875C7.17978 17.9645 8.06626 18.85 9.15478 18.85C10.2433 18.85 11.1298 17.9645 11.1298 16.875C11.1298 16.5852 11.365 16.35 11.6548 16.35C11.9446 16.35 12.1798 16.5852 12.1798 16.875C12.1798 18.5431 10.8221 19.9 9.15478 19.9Z" fill="white" stroke="#4D5CF0" stroke-width="0.2"/>
<path d="M1.39653 15.0093L1.39737 15.0085C1.41421 14.9938 1.43269 14.98 1.45249 14.9672L1.45851 14.9633L1.46391 14.9586C2.7089 13.8722 3.42153 12.309 3.42153 10.6583V8.33328C3.42153 5.17197 5.99425 2.6 9.15482 2.6C9.28813 2.6 9.4248 2.60258 9.54904 2.62362L9.54935 2.62367C9.83555 2.67122 10.0288 2.94223 9.98117 3.2277L9.98116 3.22775C9.93369 3.51282 9.65729 3.70643 9.3774 3.65889L9.37669 3.65877C9.3132 3.64846 9.2438 3.64918 9.18839 3.64976C9.17649 3.64988 9.16523 3.65 9.15482 3.65C6.57305 3.65 4.47153 5.75058 4.47153 8.33328V10.6583C4.47153 12.6418 3.6023 14.5187 2.08862 15.8071C2.08617 15.809 2.08395 15.8108 2.0819 15.8125C2.07235 15.8202 2.06669 15.8248 2.0593 15.8299L2.04666 15.8385L2.03718 15.8505C2.0035 15.8931 1.97153 15.9577 1.97153 16.0417C1.97153 16.2102 2.11137 16.35 2.27982 16.35H16.0298C16.1984 16.35 16.3383 16.2102 16.3383 16.0417C16.3383 15.9565 16.3061 15.8922 16.2705 15.8489L16.2625 15.8392L16.2523 15.8318C16.2451 15.8265 16.2393 15.8218 16.2311 15.8151C16.2282 15.8127 16.2249 15.8101 16.2212 15.8071C14.7066 14.5177 13.8383 12.6418 13.8383 10.6583V9.75006C13.8383 9.46029 14.0735 9.22506 14.3633 9.22506C14.653 9.22506 14.8883 9.46029 14.8883 9.75006V10.6583C14.8883 12.3099 15.6017 13.8739 16.8483 14.9612L16.8478 14.9619L16.8586 14.9691C16.8787 14.9825 16.8965 14.9957 16.9122 15.0094L16.9132 15.0103C17.2151 15.2679 17.3883 15.6441 17.3883 16.0417C17.3883 16.7906 16.7789 17.4 16.0298 17.4H2.27982C1.53091 17.4 0.921533 16.7906 0.921533 16.0417C0.921533 15.6441 1.09463 15.2678 1.39653 15.0093Z" fill="white" stroke="#4D5CF0" stroke-width="0.2"/>
<path d="M14.9883 8.23328C12.746 8.23328 10.9215 6.409 10.9215 4.16672C10.9215 1.92443 12.746 0.1 14.9883 0.1C17.2305 0.1 19.0548 1.92443 19.0548 4.16672C19.0548 6.409 17.2305 8.23328 14.9883 8.23328ZM14.9883 1.15C13.3246 1.15 11.9715 2.50306 11.9715 4.16672C11.9715 5.83023 13.3246 7.18328 14.9883 7.18328C16.6518 7.18328 18.0048 5.83022 18.0048 4.16672C18.0048 2.50306 16.6518 1.15 14.9883 1.15Z" fill="white" stroke="#4D5CF0" stroke-width="0.2"/>
</svg>
