<svg width="17" height="19" viewBox="0 0 17 19" fill="none" xmlns="http://www.w3.org/2000/svg">
<path d="M8.50002 9.4C5.93614 9.4 3.85 7.31389 3.85 4.74998C3.85 2.18607 5.93614 0.1 8.50002 0.1C11.0639 0.1 13.15 2.18611 13.15 4.75002C13.15 7.31393 11.0639 9.4 8.50002 9.4ZM8.50002 1.08751C6.48032 1.08751 4.83751 2.73029 4.83751 4.75002C4.83751 6.76975 6.48029 8.41252 8.50002 8.41252C10.5197 8.41252 12.1625 6.76971 12.1625 4.75002C12.1625 2.73032 10.5197 1.08751 8.50002 1.08751Z" fill="white" stroke="#4D5CF0" stroke-width="0.2"/>
<path d="M1.27501 17.8125L1.27501 17.9125H1.37501H15.625H15.725V17.8125V14.319C15.725 14.0815 15.6107 13.8561 15.4176 13.7356L15.4176 13.7355C11.3084 11.1704 5.69452 11.1687 1.58186 13.7361C1.38927 13.8562 1.27505 14.0816 1.27505 14.3191L1.27501 17.8125ZM16.2187 18.9H0.781256C0.508287 18.9 0.2875 18.6792 0.2875 18.4063V14.319C0.2875 13.7388 0.584415 13.1951 1.05858 12.8986C5.48508 10.1373 11.5189 10.1379 15.9408 12.8979C16.4156 13.195 16.7125 13.7388 16.7125 14.319V18.4062C16.7125 18.6792 16.4918 18.9 16.2187 18.9Z" fill="white" stroke="#4D5CF0" stroke-width="0.2"/>
</svg>
