<svg width="21" height="19" viewBox="0 0 21 19" fill="none" xmlns="http://www.w3.org/2000/svg">
<path d="M20.6948 8.9507L20.6947 8.9493C20.6919 8.75053 20.5184 8.60551 20.3227 8.60551H1.2701C1.07674 8.60551 0.9 8.75245 0.9 8.9507V9.15567C0.9 9.35349 1.07435 9.50087 1.2701 9.50087H20.3246C20.518 9.50087 20.6947 9.35392 20.6947 9.15567L20.6948 8.9507ZM2.33365 1.82481C2.34873 1.62954 2.45258 1.43835 2.63832 1.28492L2.63853 1.28475C2.85627 1.10388 3.1529 1.00132 3.47113 1.00132H8.53025H8.63025V0.901324V0.28833V0.18833H8.53025H3.47305C2.40996 0.18833 1.51874 0.93175 1.51874 1.87637V6.94123V7.04123H1.61874H2.23365H2.33365V6.94123V1.87445V1.82481ZM2.37771 11.3184V11.2184H2.27771H1.6628H1.5628V11.3184V16.3833C1.5628 17.3279 2.45402 18.0713 3.51711 18.0713H8.57623H8.67623V17.9713V17.3564V17.2564H8.57623H3.51902C3.19911 17.2564 2.90425 17.154 2.68436 16.9729C2.481 16.8046 2.37771 16.5956 2.37771 16.3833V11.3184ZM18.8223 17.0015L18.8221 17.0017C18.6044 17.1826 18.3078 17.2851 17.9895 17.2851H12.9304H12.8304V17.3851V18V18.1H12.9304H17.9895C19.0526 18.1 19.9438 17.3566 19.9438 16.412V11.3471V11.2471H19.8438H19.2289H19.1289V11.3471V16.412C19.1289 16.6243 19.0238 16.8351 18.8223 17.0015ZM18.8126 1.31348L18.8127 1.31359C19.0161 1.48189 19.1193 1.69082 19.1193 1.90319V6.96805V7.06805H19.2193H19.8343H19.9343V6.96805V1.90319C19.9343 0.958568 19.043 0.215149 17.9799 0.215149H12.9208H12.8208V0.315149V0.931974V1.03197H12.9208H17.9799C18.2986 1.03197 18.5951 1.13286 18.8126 1.31348Z" fill="white" stroke="white" stroke-width="0.2"/>
</svg>
