<svg width="140" height="140" viewBox="0 0 140 140" fill="none" xmlns="http://www.w3.org/2000/svg">
<circle cx="70" cy="70" r="70" fill="#4D5CF0"/>
<g clip-path="url(#clip0)">
<path d="M94.9083 62.1651L77.8107 45.0675C76.3881 43.645 74.1607 43.6463 72.7394 45.0675L46.0676 71.7393C45.3678 72.4392 44.9785 73.4003 45.0002 74.3752C45.0206 75.3201 45.4075 76.1918 46.0905 76.8339L49.7321 80.4754C50.3628 81.1074 51.3606 81.1807 52.0773 80.6509C54.1685 79.1064 57.0789 79.3077 58.848 81.1212C60.6603 82.9781 60.8808 85.8951 59.3604 87.9069C58.8179 88.6248 58.8876 89.6316 59.5237 90.2677L63.1881 93.9321C63.87 94.6133 64.7986 95.0008 65.7477 95.0008C65.7729 95.0008 65.7988 95.0002 65.824 94.9996C66.7689 94.9792 67.6406 94.5929 68.2827 93.9092L94.9311 67.2591C95.6309 66.5598 96.0196 65.5993 95.9985 64.6238C95.9781 63.6789 95.5919 62.8073 94.9083 62.1651ZM75.3117 47.5971C75.3034 47.6019 75.2895 47.6043 75.2781 47.6067L74.0142 46.3428L75.3117 47.5971ZM65.7243 91.3707L63.0746 88.7209C64.691 85.444 64.0898 81.3321 61.4274 78.6037C58.7741 75.8872 54.6417 75.2721 51.2837 76.9301L48.6292 74.2761L75.2757 47.6302L92.3702 64.7247L65.7243 91.3707Z" fill="white"/>
<path d="M68.9265 51.2056L66.3622 53.7371L70.9871 58.4219L73.5514 55.8904L68.9265 51.2056Z" fill="white"/>
<path d="M84.1727 66.505L81.6406 69.0702L86.3268 73.6958L88.8588 71.1306L84.1727 66.505Z" fill="white"/>
<path d="M76.5482 58.8253L74.0001 61.3734L78.6852 66.0585L81.2333 63.5104L76.5482 58.8253Z" fill="white"/>
</g>
<defs>
<clipPath id="clip0">
<rect x="45" y="44" width="51" height="51" fill="white"/>
</clipPath>
</defs>
</svg>
