<svg width="177" height="249" viewBox="0 0 177 249" fill="none" xmlns="http://www.w3.org/2000/svg">
<circle cx="88.5" cy="88.5" r="88.5" fill="#4D5CF0"/>
<path d="M29.62 225.428C29.62 223.412 29.992 221.54 30.736 219.812C31.48 218.06 32.512 216.536 33.832 215.24C35.152 213.944 36.724 212.936 38.548 212.216C40.396 211.472 42.424 211.1 44.632 211.1C46.816 211.1 48.832 211.472 50.68 212.216C52.528 212.936 54.112 213.944 55.432 215.24C56.776 216.536 57.82 218.06 58.564 219.812C59.308 221.54 59.68 223.412 59.68 225.428C59.68 227.3 59.368 229.04 58.744 230.648C58.144 232.256 57.268 233.684 56.116 234.932L60.724 239.756L54.244 240.764L51.76 238.208C50.704 238.688 49.576 239.06 48.376 239.324C47.2 239.612 45.952 239.756 44.632 239.756C42.424 239.756 40.396 239.396 38.548 238.676C36.724 237.932 35.152 236.912 33.832 235.616C32.512 234.32 31.48 232.808 30.736 231.08C29.992 229.328 29.62 227.444 29.62 225.428ZM37 225.428C37 226.508 37.204 227.504 37.612 228.416C38.02 229.328 38.572 230.12 39.268 230.792C39.964 231.464 40.768 231.992 41.68 232.376C42.616 232.736 43.6 232.916 44.632 232.916C45.256 232.916 45.88 232.844 46.504 232.7L42.472 228.452L49.132 227.624L51.004 229.604C51.868 228.404 52.3 227.012 52.3 225.428C52.3 224.348 52.096 223.352 51.688 222.44C51.28 221.528 50.716 220.736 49.996 220.064C49.3 219.392 48.484 218.876 47.548 218.516C46.636 218.132 45.664 217.94 44.632 217.94C43.6 217.94 42.616 218.132 41.68 218.516C40.768 218.876 39.964 219.392 39.268 220.064C38.572 220.736 38.02 221.528 37.612 222.44C37.204 223.352 37 224.348 37 225.428ZM79.581 217.832H71.193V222.368H79.113V228.344H71.193V233.024H79.581V239H64.137V211.856H79.581V217.832ZM90.1042 229.712C90.1042 230.312 90.2122 230.876 90.4282 231.404C90.6442 231.908 90.9322 232.352 91.2922 232.736C91.6762 233.12 92.1202 233.42 92.6242 233.636C93.1522 233.852 93.7162 233.96 94.3162 233.96C94.8922 233.96 95.4322 233.852 95.9362 233.636C96.4642 233.42 96.9082 233.12 97.2682 232.736C97.6522 232.352 97.9522 231.908 98.1682 231.404C98.4082 230.9 98.5282 230.36 98.5282 229.784C98.5282 229.208 98.4082 228.668 98.1682 228.164C97.9522 227.636 97.6522 227.18 97.2682 226.796C96.9082 226.412 96.4642 226.112 95.9362 225.896C95.4322 225.68 94.8922 225.572 94.3162 225.572C93.7162 225.572 93.1522 225.68 92.6242 225.896C92.1202 226.112 91.6762 226.412 91.2922 226.796C90.9322 227.18 90.6442 227.624 90.4282 228.128C90.2122 228.608 90.1042 229.136 90.1042 229.712ZM98.3122 220.532H104.864V239H98.3122V236.948C96.9202 238.7 95.0362 239.576 92.6602 239.576C91.3162 239.576 90.0802 239.336 88.9522 238.856C87.8242 238.352 86.8402 237.656 86.0002 236.768C85.1602 235.88 84.5002 234.836 84.0202 233.636C83.5642 232.436 83.3362 231.128 83.3362 229.712C83.3362 228.392 83.5642 227.144 84.0202 225.968C84.4762 224.768 85.1122 223.724 85.9282 222.836C86.7442 221.948 87.7162 221.252 88.8442 220.748C89.9722 220.22 91.2202 219.956 92.5882 219.956C94.8922 219.956 96.8002 220.76 98.3122 222.368V220.532ZM121.538 225.284C120.338 224.66 119.162 224.348 118.01 224.348C117.41 224.348 116.918 224.468 116.534 224.708C116.174 224.948 115.994 225.272 115.994 225.68C115.994 225.896 116.018 226.076 116.066 226.22C116.138 226.34 116.27 226.46 116.462 226.58C116.678 226.7 116.978 226.808 117.362 226.904C117.77 227 118.298 227.12 118.946 227.264C120.746 227.624 122.09 228.272 122.978 229.208C123.866 230.12 124.31 231.296 124.31 232.736C124.31 233.816 124.094 234.788 123.662 235.652C123.23 236.516 122.63 237.248 121.862 237.848C121.094 238.424 120.17 238.868 119.09 239.18C118.01 239.516 116.822 239.684 115.526 239.684C113.03 239.684 110.57 238.976 108.146 237.56L110.522 232.952C112.346 234.2 114.074 234.824 115.706 234.824C116.306 234.824 116.798 234.692 117.182 234.428C117.566 234.164 117.758 233.828 117.758 233.42C117.758 233.18 117.722 232.988 117.65 232.844C117.602 232.676 117.482 232.532 117.29 232.412C117.098 232.268 116.81 232.148 116.426 232.052C116.066 231.932 115.586 231.812 114.986 231.692C112.97 231.284 111.554 230.684 110.738 229.892C109.946 229.076 109.55 227.96 109.55 226.544C109.55 225.512 109.742 224.588 110.126 223.772C110.51 222.932 111.062 222.224 111.782 221.648C112.502 221.072 113.366 220.628 114.374 220.316C115.406 220.004 116.546 219.848 117.794 219.848C119.834 219.848 121.814 220.244 123.734 221.036L121.538 225.284ZM134.311 236.48L125.383 220.532H132.943L137.875 230L142.663 220.532H150.151L135.319 248.216H128.011L134.311 236.48Z" fill="#4D5CF0"/>
<g filter="url(#filter0_d)">
<path d="M60.734 127C56.706 127 53.2433 125.551 50.346 122.654C47.4487 119.757 46 116.294 46 112.266V65.4139C46 61.3859 47.4487 57.9233 50.346 55.0259C53.2433 52.1286 56.706 50.6799 60.734 50.6799H107.48C111.579 50.6799 115.077 52.1286 117.974 55.0259C120.871 57.9233 122.32 61.3859 122.32 65.4139V112.902H131.436V127H60.734ZM63.702 112.902H104.512C106.42 112.902 107.515 112.796 107.798 112.584C108.081 112.301 108.222 111.171 108.222 109.192V68.4879C108.222 66.5093 108.081 65.4139 107.798 65.2019C107.515 64.9193 106.42 64.7779 104.512 64.7779H63.702C61.7233 64.7779 60.5927 64.9193 60.31 65.2019C60.098 65.4139 59.992 66.5093 59.992 68.4879V109.192C59.992 111.171 60.098 112.301 60.31 112.584C60.5927 112.796 61.7233 112.902 63.702 112.902Z" fill="white"/>
</g>
<g filter="url(#filter1_d)">
<path d="M94.422 104.759C93.9923 104.759 93.5631 104.596 93.2362 104.267L81.4919 92.5224C81.1765 92.207 81 91.7798 81 91.337V75.6777C81 74.7516 81.7516 74 82.6777 74C83.6039 74 84.3555 74.7516 84.3555 75.6777V90.6411L95.6078 101.893C96.2632 102.549 96.2632 103.611 95.6078 104.267C95.2809 104.596 94.8517 104.759 94.422 104.759Z" fill="white"/>
<path d="M92.5269 104.972C92.5273 104.972 92.5277 104.972 92.5281 104.973C93.0511 105.498 93.739 105.759 94.422 105.759C95.105 105.759 95.793 105.498 96.316 104.973C97.3608 103.927 97.3604 102.232 96.3149 101.186L85.3555 90.2269V75.6777C85.3555 74.1993 84.1562 73 82.6777 73C81.1993 73 80 74.1993 80 75.6777V91.337C80 92.0454 80.2822 92.7269 80.7848 93.2295L92.5269 104.972Z" stroke="white" stroke-width="2"/>
</g>
<defs>
<filter id="filter0_d" x="42" y="50.6799" width="93.436" height="84.32" filterUnits="userSpaceOnUse" color-interpolation-filters="sRGB">
<feFlood flood-opacity="0" result="BackgroundImageFix"/>
<feColorMatrix in="SourceAlpha" type="matrix" values="0 0 0 0 0 0 0 0 0 0 0 0 0 0 0 0 0 0 127 0"/>
<feOffset dy="4"/>
<feGaussianBlur stdDeviation="2"/>
<feColorMatrix type="matrix" values="0 0 0 0 0 0 0 0 0 0 0 0 0 0 0 0 0 0 0.25 0"/>
<feBlend mode="normal" in2="BackgroundImageFix" result="effect1_dropShadow"/>
<feBlend mode="normal" in="SourceGraphic" in2="effect1_dropShadow" result="shape"/>
</filter>
<filter id="filter1_d" x="75" y="72" width="27.0993" height="42.759" filterUnits="userSpaceOnUse" color-interpolation-filters="sRGB">
<feFlood flood-opacity="0" result="BackgroundImageFix"/>
<feColorMatrix in="SourceAlpha" type="matrix" values="0 0 0 0 0 0 0 0 0 0 0 0 0 0 0 0 0 0 127 0"/>
<feOffset dy="4"/>
<feGaussianBlur stdDeviation="2"/>
<feColorMatrix type="matrix" values="0 0 0 0 0 0 0 0 0 0 0 0 0 0 0 0 0 0 0.25 0"/>
<feBlend mode="normal" in2="BackgroundImageFix" result="effect1_dropShadow"/>
<feBlend mode="normal" in="SourceGraphic" in2="effect1_dropShadow" result="shape"/>
</filter>
</defs>
</svg>
